<svg width="1200" height="420" viewBox="0 0 1200 420" fill="none" xmlns="http://www.w3.org/2000/svg" role="img" aria-labelledby="title desc">
  <title id="title">Nostr-Q banner</title>
  <desc id="desc">Signed queues and pub/sub over Nostr relays</desc>
  <defs>
    <linearGradient id="bg" x1="80" y1="20" x2="1120" y2="400" gradientUnits="userSpaceOnUse">
      <stop stop-color="#101828"/>
      <stop offset="0.45" stop-color="#172033"/>
      <stop offset="1" stop-color="#111827"/>
    </linearGradient>
    <linearGradient id="accent" x1="180" y1="80" x2="1030" y2="320" gradientUnits="userSpaceOnUse">
      <stop stop-color="#38BDF8"/>
      <stop offset="0.52" stop-color="#A78BFA"/>
      <stop offset="1" stop-color="#34D399"/>
    </linearGradient>
    <filter id="soft" x="-20%" y="-20%" width="140%" height="140%" color-interpolation-filters="sRGB">
      <feGaussianBlur stdDeviation="18"/>
    </filter>
  </defs>
  <rect width="1200" height="420" rx="32" fill="url(#bg)"/>
  <path d="M0 334C120 300 196 326 294 286C396 244 444 172 560 184C696 198 746 310 884 286C994 266 1064 186 1200 208V420H0V334Z" fill="#0B1220"/>
  <path d="M92 84H1108" stroke="#2A364D" stroke-width="1"/>
  <path d="M92 140H1108" stroke="#243045" stroke-width="1"/>
  <path d="M92 196H1108" stroke="#243045" stroke-width="1"/>
  <path d="M92 252H1108" stroke="#243045" stroke-width="1"/>
  <path d="M92 308H1108" stroke="#2A364D" stroke-width="1"/>
  <path d="M160 52V352" stroke="#243045" stroke-width="1"/>
  <path d="M320 52V352" stroke="#243045" stroke-width="1"/>
  <path d="M480 52V352" stroke="#243045" stroke-width="1"/>
  <path d="M640 52V352" stroke="#243045" stroke-width="1"/>
  <path d="M800 52V352" stroke="#243045" stroke-width="1"/>
  <path d="M960 52V352" stroke="#243045" stroke-width="1"/>
  <circle cx="1018" cy="104" r="96" fill="#38BDF8" opacity="0.12" filter="url(#soft)"/>
  <circle cx="178" cy="302" r="110" fill="#34D399" opacity="0.10" filter="url(#soft)"/>
  <circle cx="728" cy="332" r="86" fill="#A78BFA" opacity="0.12" filter="url(#soft)"/>
  <g opacity="0.95">
    <path d="M770 126C822 82 902 76 968 126C1026 170 1070 166 1110 140" stroke="url(#accent)" stroke-width="4" stroke-linecap="round"/>
    <path d="M770 206C814 168 874 164 932 204C992 246 1056 240 1110 204" stroke="#38BDF8" stroke-width="3" stroke-linecap="round" opacity="0.85"/>
    <path d="M770 286C830 248 900 254 954 286C1008 318 1064 310 1110 284" stroke="#34D399" stroke-width="3" stroke-linecap="round" opacity="0.85"/>
    <circle cx="770" cy="126" r="9" fill="#38BDF8"/>
    <circle cx="968" cy="126" r="9" fill="#A78BFA"/>
    <circle cx="1110" cy="140" r="9" fill="#34D399"/>
    <circle cx="770" cy="206" r="7" fill="#38BDF8"/>
    <circle cx="932" cy="204" r="7" fill="#A78BFA"/>
    <circle cx="1110" cy="204" r="7" fill="#34D399"/>
    <circle cx="770" cy="286" r="7" fill="#38BDF8"/>
    <circle cx="954" cy="286" r="7" fill="#A78BFA"/>
    <circle cx="1110" cy="284" r="7" fill="#34D399"/>
  </g>
  <g>
    <rect x="92" y="82" width="104" height="34" rx="17" fill="#142033" stroke="#314158"/>
    <text x="144" y="104" fill="#C7D2FE" font-family="Inter, ui-sans-serif, system-ui, -apple-system, BlinkMacSystemFont, Segoe UI, sans-serif" font-size="14" text-anchor="middle">SIGNED</text>
    <rect x="208" y="82" width="106" height="34" rx="17" fill="#142033" stroke="#314158"/>
    <text x="261" y="104" fill="#BAE6FD" font-family="Inter, ui-sans-serif, system-ui, -apple-system, BlinkMacSystemFont, Segoe UI, sans-serif" font-size="14" text-anchor="middle">QUEUES</text>
    <rect x="326" y="82" width="118" height="34" rx="17" fill="#142033" stroke="#314158"/>
    <text x="385" y="104" fill="#BBF7D0" font-family="Inter, ui-sans-serif, system-ui, -apple-system, BlinkMacSystemFont, Segoe UI, sans-serif" font-size="14" text-anchor="middle">PUB/SUB</text>
  </g>
  <text x="92" y="188" fill="#F8FAFC" font-family="Inter, ui-sans-serif, system-ui, -apple-system, BlinkMacSystemFont, Segoe UI, sans-serif" font-size="76" font-weight="800" letter-spacing="-1">Nostr-Q</text>
  <text x="96" y="236" fill="#D7DEE9" font-family="Inter, ui-sans-serif, system-ui, -apple-system, BlinkMacSystemFont, Segoe UI, sans-serif" font-size="24" font-weight="500">Message queues over relays you control.</text>
  <text x="96" y="278" fill="#94A3B8" font-family="Inter, ui-sans-serif, system-ui, -apple-system, BlinkMacSystemFont, Segoe UI, sans-serif" font-size="18">Rust SDK + CLI for signed work queues, pub/sub, retries, traces, and DLQs.</text>
  <g transform="translate(96 318)">
    <rect width="154" height="44" rx="12" fill="#E2E8F0"/>
    <text x="77" y="28" fill="#101828" font-family="SFMono-Regular, Consolas, Liberation Mono, monospace" font-size="15" text-anchor="middle">brew install</text>
    <rect x="168" width="172" height="44" rx="12" fill="#121A2B" stroke="#344054"/>
    <text x="254" y="28" fill="#E2E8F0" font-family="SFMono-Regular, Consolas, Liberation Mono, monospace" font-size="15" text-anchor="middle">nostr-q --help</text>
  </g>
</svg>
